<?xml version="1.0" encoding="utf-8"?>
<!-- Generator: Adobe Illustrator 22.1.0, SVG Export Plug-In . SVG Version: 6.00 Build 0)  -->
<svg version="1.1" id="Layer_1" xmlns="http://www.w3.org/2000/svg" xmlns:xlink="http://www.w3.org/1999/xlink" x="0px" y="0px"
	 viewBox="0 0 239 234" style="enable-background:new 0 0 239 234;" xml:space="preserve">
<style type="text/css">
	.st0{fill:#FFFFFF;}
</style>
<title>save</title>
<path class="st0" d="M206.4,43.4l-17.7-17.7c-2.3-2.3-5.5-3.6-8.8-3.6H40.4C33.6,22,28,27.6,28,34.4v163.2c0,6.9,5.6,12.4,12.4,12.4
	h157.2c6.9,0,12.4-5.6,12.4-12.4V52.1C210,48.9,208.7,45.7,206.4,43.4z M80.5,45.8c0-3,2.1-5.5,4.8-5.5h65.4c2.6,0,4.8,2.4,4.8,5.5
	v30.8c0,3-2.1,5.5-4.8,5.5H85.3c-2.6,0-4.8-2.4-4.8-5.5V45.8z M183.5,181.5c0,3-2.4,5.4-5.4,5.4H57.9c-3,0-5.4-2.4-5.4-5.4v-69
	c0-3,2.4-5.4,5.4-5.4h120.2c3,0,5.4,2.4,5.4,5.4V181.5z"/>
</svg>
